<?xml version="1.0" standalone="no"?>
<!DOCTYPE svg PUBLIC "-//W3C//DTD SVG 20010904//EN"
 "http://www.w3.org/TR/2001/REC-SVG-20010904/DTD/svg10.dtd">
<svg version="1.0" xmlns="http://www.w3.org/2000/svg"
 width="1920.000000pt" height="1920.000000pt" viewBox="0 0 1920.000000 1920.000000"
 preserveAspectRatio="xMidYMid meet">
<metadata>
Created by potrace 1.16, written by Peter Selinger 2001-2019
</metadata>
<g transform="translate(0.000000,1920.000000) scale(0.100000,-0.100000)"
fill="#000000" stroke="none">
<path d="M8377 14730 c-165 -28 -307 -167 -341 -333 l-13 -62 -61 -22 c-300
-108 -556 -311 -730 -576 -98 -150 -154 -280 -200 -467 -24 -101 -25 -120 -29
-462 l-5 -357 -121 -3 -122 -3 -3 -3717 -2 -3718 2550 0 2550 0 0 3720 0 3720
-119 0 -119 0 -5 338 c-6 374 -13 431 -73 612 -42 127 -132 302 -210 407 -157
215 -401 398 -664 499 -41 15 -78 32 -81 37 -4 5 -9 29 -13 53 -14 108 -119
246 -226 297 -30 14 -84 31 -120 37 -78 12 -1770 12 -1843 0z m-204 -876 c22
-20 69 -50 106 -68 l66 -31 935 -3 c917 -2 936 -2 1002 18 45 14 90 37 134 71
75 57 65 57 189 -4 239 -118 430 -344 511 -607 33 -104 44 -233 44 -507 l0
-273 -1856 0 -1856 0 4 338 c4 332 5 338 31 425 81 264 242 471 464 598 57 33
160 78 177 79 5 0 27 -16 49 -36z"/>
<path d="M12360 8761 l0 -3721 64 0 65 0 3 -178 c3 -200 10 -223 80 -292 69
-67 88 -70 467 -70 361 1 379 3 446 54 19 15 47 48 62 74 28 47 28 49 33 261
l5 215 110 37 c270 93 500 242 707 458 276 288 439 655 477 1071 15 162 15
4046 0 4196 -80 806 -649 1431 -1441 1586 -105 20 -149 22 -595 26 l-483 4 0
-3721z"/>
<path d="M5369 12440 c-840 -61 -1523 -719 -1619 -1560 -8 -66 -10 -736 -7
-2215 3 -2101 3 -2121 24 -2220 128 -618 555 -1119 1131 -1326 l92 -33 0 -201
c0 -222 8 -263 59 -326 16 -19 53 -48 82 -64 l54 -30 350 0 c334 0 352 1 395
21 58 27 108 77 134 134 17 39 21 70 24 217 l4 172 76 3 77 3 0 3715 0 3715
-385 1 c-212 1 -433 -2 -491 -6z"/>
</g>
</svg>
